# xmcd
#
# Track frame offsets: 
#        150
#        17161
#        33057
#        48479
#        66799
#        81736
#        98338
#        114596
#        129874
#        149212
#        164896
#        181545
#
# Disc length: 2634 seconds
#
# Revision: 0
# Processed by: cddbd v1.5.2PL0 Copyright (c) Steve Scherf et al.
# Submitted via: ExactAudioCopy v0.99pb4
#
DISCID=a10a480c
DTITLE=Rosenfels - Alles
DYEAR=2008
DGENRE=Chanson
TTITLE0=Sonne und Mond
TTITLE1=Für Dich
TTITLE2=Keine Zeit
TTITLE3=Alles
TTITLE4=Kosmonautentraum
TTITLE5=Zeit mit Dir
TTITLE6=Laufe, Laufe, Laufe
TTITLE7=Ich bin hier neu
TTITLE8=Es fühlt sich an wie Liebe
TTITLE9=Es ist alles vorbei
TTITLE10=Wenn die Stimmen kommen
TTITLE11=Ist das Leben unendlich
EXTD=
EXTT0=
EXTT1=
EXTT2=
EXTT3=
EXTT4=
EXTT5=
EXTT6=
EXTT7=
EXTT8=
EXTT9=
EXTT10=
EXTT11=
PLAYORDER=
